# xmcd
# 
# Track frame offsets:
#     150
#     13977
#     25542
#     38200
# 
# Disc length: 709
# 
# Revision: 1
# Processed by: cddbd v1.5.2PL0 Copyright (c) Steve Scherf et al.
# Submitted via: fre:ac v1.0.17
# 
DISCID=2602c304
DTITLE=Various Artist - Snot Dum EP
DYEAR=2005
DGENRE=Neo-Rockabilly
TTITLE0=Powersolo - Dum Dum Dum
TTITLE1=The Defectors - Frk. Snot
TTITLE2=Powersolo - Cloriusmand
TTITLE3=The Defectors - Små Blå Mænd
EXTD=
EXTT0=
EXTT1=
EXTT2=
EXTT3=
PLAYORDER=
